<svg width="800" height="520" viewBox="0 0 800 520" fill="none" xmlns="http://www.w3.org/2000/svg" role="img" aria-label="Hero illustration">
  <rect width="800" height="520" rx="12" fill="#F6F7FB"/>
  <g transform="translate(60,50)">
    <rect x="0" y="0" width="380" height="220" rx="8" fill="#fff" stroke="#E8E8EE"/>
    <rect x="410" y="0" width="220" height="220" rx="8" fill="#fff" stroke="#E8E8EE"/>
    <rect x="0" y="250" width="630" height="180" rx="8" fill="#fff" stroke="#E8E8EE"/>
    <circle cx="44" cy="44" r="28" fill="#111" opacity="0.9"/>
    <rect x="90" y="20" width="220" height="16" rx="6" fill="#E8E8EE"/>
    <rect x="90" y="46" width="160" height="12" rx="6" fill="#F0F0F5"/>
    <rect x="430" y="20" width="160" height="16" rx="6" fill="#E8E8EE"/>
    <rect x="430" y="46" width="100" height="12" rx="6" fill="#F0F0F5"/>
    <rect x="20" y="270" width="580" height="14" rx="6" fill="#E8E8EE"/>
    <rect x="20" y="294" width="360" height="12" rx="6" fill="#F0F0F5"/>
    <rect x="20" y="320" width="520" height="12" rx="6" fill="#F0F0F5"/>
  </g>
</svg>